<svg xmlns="http://www.w3.org/2000/svg" viewBox="0 0 1800 1000">
  <rect width="1800" height="1000" fill="#3a362f"/>
  <rect width="1800" height="1000" fill="#B08D57" fill-opacity="0.08"/>
  <g fill="none" stroke="#d8c6a3" stroke-width="3" stroke-linecap="round" stroke-linejoin="round" opacity="0.55">
    <path d="M330 260 L270 330 L190 305 L155 620 L205 650 L225 900 L300 930 L300 620 L360 620 L420 620 L420 930 L495 900 L515 650 L565 620 L530 305 L450 330 Z" transform="translate(-40,0) scale(0.62)" />
    <path d="M330 260 L270 330 L190 305 L155 620 L205 650 L225 900 L300 930 L300 620 L360 620 L420 620 L420 930 L495 900 L515 650 L565 620 L530 305 L450 330 Z" transform="translate(1180,40) scale(0.6)" />
  </g>
  <g fill="none" stroke="#d8c6a3" stroke-width="1" opacity="0.3">
    <circle cx="900" cy="500" r="260"/>
    <circle cx="900" cy="500" r="330"/>
  </g>
</svg>
